<?xml version="1.0" standalone="no"?>
<!DOCTYPE svg PUBLIC "-//W3C//DTD SVG 20010904//EN"
 "http://www.w3.org/TR/2001/REC-SVG-20010904/DTD/svg10.dtd">
<svg version="1.0" xmlns="http://www.w3.org/2000/svg"
 width="1024.000000pt" height="1024.000000pt" viewBox="0 0 1024.000000 1024.000000"
 preserveAspectRatio="xMidYMid meet">

<g transform="translate(0.000000,1024.000000) scale(0.100000,-0.100000)"
fill="#FFFFFF" stroke="none">
<path d="M2372 6580 c-376 -87 -657 -374 -734 -750 -16 -76 -19 -122 -16 -230
4 -119 9 -146 37 -229 39 -115 99 -233 189 -371 63 -97 529 -753 639 -900 50
-67 80 -83 110 -58 36 29 477 640 657 908 204 305 265 480 253 735 -20 420
-286 760 -692 881 -124 36 -320 43 -443 14z m333 -355 c109 -29 184 -73 271
-160 84 -84 136 -170 165 -275 19 -69 17 -243 -5 -315 -26 -87 -83 -190 -139
-252 -46 -50 -51 -53 -66 -38 -13 13 -17 50 -21 215 -6 234 18 189 -204 382
-131 114 -150 128 -165 115 -9 -7 -85 -73 -168 -146 l-153 -133 0 -191 c0
-181 -10 -267 -30 -267 -4 0 -27 21 -50 47 -133 152 -194 363 -156 543 9 41
34 113 57 160 75 151 227 276 385 314 79 19 207 19 279 1z m-35 -855 l0 -121
-106 3 -105 3 -2 118 -2 117 108 0 107 0 0 -120z"/>
<path d="M4323 5978 c-12 -35 -65 -187 -118 -338 -53 -151 -129 -369 -170
-485 -118 -332 -305 -868 -305 -872 0 -7 295 -2 306 5 18 12 31 42 90 218 31
93 59 172 63 176 3 4 159 8 346 8 274 2 341 -1 347 -12 5 -7 35 -89 68 -183
33 -93 67 -179 75 -192 15 -22 20 -23 171 -23 145 0 156 1 149 18 -8 19 -211
587 -340 952 -45 129 -124 352 -175 495 -51 143 -96 268 -101 278 -9 15 -29
17 -197 17 l-187 0 -22 -62z m351 -696 c58 -167 106 -305 106 -308 0 -2 -110
-4 -245 -4 -135 0 -245 3 -245 8 0 6 220 650 236 692 4 10 13 -3 24 -35 10
-27 65 -186 124 -353z"/>
<path d="M6745 5580 c-193 -35 -361 -161 -445 -335 -54 -110 -73 -197 -73
-330 1 -270 128 -486 354 -600 82 -42 165 -58 289 -58 149 0 244 29 352 106
113 81 237 262 197 288 -8 5 -69 9 -136 8 l-122 -1 -36 -44 c-125 -152 -398
-147 -516 10 -33 43 -86 172 -76 182 2 3 211 5 463 7 l459 2 3 95 c9 296 -171
572 -425 650 -76 23 -215 33 -288 20z m233 -280 c74 -32 136 -104 162 -187 11
-36 20 -67 20 -69 0 -2 -139 -4 -310 -4 -354 0 -328 -9 -289 95 32 87 118 161
214 186 50 13 147 3 203 -21z"/>
<path d="M8040 5580 c-198 -28 -345 -132 -390 -277 -11 -36 -20 -78 -20 -94
l0 -30 136 3 136 3 14 40 c27 80 115 125 244 125 91 0 158 -22 199 -64 29 -29
35 -45 39 -91 4 -51 2 -57 -27 -84 -38 -35 -82 -46 -264 -66 -242 -26 -326
-55 -423 -146 -87 -84 -120 -199 -94 -331 38 -196 195 -308 431 -308 146 0
275 43 364 121 l34 30 3 -63 3 -63 140 0 140 0 3 435 c1 250 -2 462 -7 499
-26 167 -151 298 -332 347 -69 18 -244 26 -329 14z m367 -727 c2 -62 -16 -182
-31 -211 -22 -42 -95 -109 -145 -134 -36 -17 -64 -22 -131 -22 -94 0 -125 11
-175 63 -25 27 -30 41 -33 94 -4 72 16 114 70 147 45 28 87 38 225 55 65 8
138 21 163 29 25 8 47 14 51 15 3 1 5 -16 6 -36z"/>
<path d="M5963 5555 c-67 -20 -129 -61 -175 -115 -24 -28 -45 -50 -48 -50 -3
0 -7 17 -8 38 -4 66 -14 117 -26 124 -6 4 -66 8 -132 8 -102 0 -123 -3 -128
-16 -11 -29 -7 -1224 4 -1245 10 -17 23 -19 149 -19 101 0 141 3 149 13 8 9
12 144 14 407 3 387 3 396 25 437 47 88 107 114 273 122 l125 6 3 143 3 142
-26 10 c-37 14 -152 11 -202 -5z"/>
</g>
</svg>
